<mxfile host="65bd71144e">
    <diagram id="kC9WzpZCJGL9rkVllG7n" name="第 1 页">
        <mxGraphModel dx="576" dy="515" grid="1" gridSize="10" guides="1" tooltips="1" connect="1" arrows="1" fold="1" page="1" pageScale="1" pageWidth="827" pageHeight="1169" background="#ffffff" math="0" shadow="0">
            <root>
                <mxCell id="0"/>
                <mxCell id="1" parent="0"/>
                <mxCell id="2" value="" style="whiteSpace=wrap;html=1;fillColor=#f5f5f5;fontColor=#333333;strokeColor=#666666;" vertex="1" parent="1">
                    <mxGeometry x="120" y="20" width="200" height="430" as="geometry"/>
                </mxCell>
                <mxCell id="3" value="" style="rounded=0;whiteSpace=wrap;html=1;fillColor=#d5e8d4;strokeColor=#82b366;" vertex="1" parent="1">
                    <mxGeometry x="130" y="30" width="180" height="210" as="geometry"/>
                </mxCell>
                <mxCell id="5" value="方法索引" style="rounded=1;whiteSpace=wrap;html=1;fillColor=#ffe6cc;strokeColor=#d79b00;fontStyle=1;fontColor=#000000;" vertex="1" parent="1">
                    <mxGeometry x="150" y="60" width="140" height="20" as="geometry"/>
                </mxCell>
                <mxCell id="7" value="输入输出参数" style="rounded=1;whiteSpace=wrap;html=1;fillColor=#ffe6cc;strokeColor=#d79b00;fontStyle=1;fontColor=#000000;" vertex="1" parent="1">
                    <mxGeometry x="150" y="90" width="140" height="20" as="geometry"/>
                </mxCell>
                <mxCell id="8" value="本地变量" style="rounded=1;whiteSpace=wrap;html=1;fillColor=#ffe6cc;strokeColor=#d79b00;fontStyle=1;fontColor=#000000;" vertex="1" parent="1">
                    <mxGeometry x="150" y="120" width="140" height="20" as="geometry"/>
                </mxCell>
                <mxCell id="9" value="Class File：引用" style="rounded=1;whiteSpace=wrap;html=1;fillColor=#ffe6cc;strokeColor=#d79b00;fontStyle=1;fontColor=#000000;" vertex="1" parent="1">
                    <mxGeometry x="150" y="150" width="140" height="20" as="geometry"/>
                </mxCell>
                <mxCell id="10" value="父帧" style="rounded=1;whiteSpace=wrap;html=1;fillColor=#ffe6cc;strokeColor=#d79b00;fontStyle=1;fontColor=#000000;" vertex="1" parent="1">
                    <mxGeometry x="150" y="180" width="140" height="20" as="geometry"/>
                </mxCell>
                <mxCell id="11" value="子帧" style="rounded=1;whiteSpace=wrap;html=1;fillColor=#ffe6cc;strokeColor=#d79b00;fontStyle=1;fontColor=#000000;" vertex="1" parent="1">
                    <mxGeometry x="150" y="210" width="140" height="20" as="geometry"/>
                </mxCell>
                <mxCell id="13" value="" style="rounded=0;whiteSpace=wrap;html=1;fillColor=#f8cecc;strokeColor=#b85450;" vertex="1" parent="1">
                    <mxGeometry x="130" y="250" width="180" height="190" as="geometry"/>
                </mxCell>
                <mxCell id="14" value="方法索引" style="rounded=1;whiteSpace=wrap;html=1;fillColor=#ffe6cc;strokeColor=#d79b00;fontStyle=1;fontColor=#000000;" vertex="1" parent="1">
                    <mxGeometry x="150" y="260" width="140" height="20" as="geometry"/>
                </mxCell>
                <mxCell id="15" value="输入输出参数" style="rounded=1;whiteSpace=wrap;html=1;fillColor=#ffe6cc;strokeColor=#d79b00;fontStyle=1;fontColor=#000000;" vertex="1" parent="1">
                    <mxGeometry x="150" y="290" width="140" height="20" as="geometry"/>
                </mxCell>
                <mxCell id="16" value="本地变量" style="rounded=1;whiteSpace=wrap;html=1;fillColor=#ffe6cc;strokeColor=#d79b00;fontStyle=1;fontColor=#000000;" vertex="1" parent="1">
                    <mxGeometry x="150" y="320" width="140" height="20" as="geometry"/>
                </mxCell>
                <mxCell id="17" value="Class File：引用" style="rounded=1;whiteSpace=wrap;html=1;fillColor=#ffe6cc;strokeColor=#d79b00;fontStyle=1;fontColor=#000000;" vertex="1" parent="1">
                    <mxGeometry x="150" y="350" width="140" height="20" as="geometry"/>
                </mxCell>
                <mxCell id="18" value="父帧" style="rounded=1;whiteSpace=wrap;html=1;fillColor=#ffe6cc;strokeColor=#d79b00;fontStyle=1;fontColor=#000000;" vertex="1" parent="1">
                    <mxGeometry x="150" y="380" width="140" height="20" as="geometry"/>
                </mxCell>
                <mxCell id="19" value="子帧" style="rounded=1;whiteSpace=wrap;html=1;fillColor=#ffe6cc;strokeColor=#d79b00;fontStyle=1;fontColor=#000000;" vertex="1" parent="1">
                    <mxGeometry x="150" y="410" width="140" height="20" as="geometry"/>
                </mxCell>
                <mxCell id="21" value="" style="endArrow=classic;html=1;fontColor=#000000;strokeWidth=2;strokeColor=#000000;exitX=1;exitY=0.5;exitDx=0;exitDy=0;entryX=1;entryY=0.5;entryDx=0;entryDy=0;" edge="1" parent="1" source="19" target="3">
                    <mxGeometry width="50" height="50" relative="1" as="geometry">
                        <mxPoint x="400" y="370" as="sourcePoint"/>
                        <mxPoint x="309" y="146" as="targetPoint"/>
                        <Array as="points">
                            <mxPoint x="360" y="420"/>
                            <mxPoint x="360" y="135"/>
                        </Array>
                    </mxGeometry>
                </mxCell>
                <mxCell id="22" value="" style="endArrow=classic;html=1;strokeColor=#000000;strokeWidth=2;fontColor=#000000;entryX=0;entryY=0.5;entryDx=0;entryDy=0;exitX=0;exitY=0.5;exitDx=0;exitDy=0;" edge="1" parent="1" source="10" target="13">
                    <mxGeometry width="50" height="50" relative="1" as="geometry">
                        <mxPoint x="60" y="290" as="sourcePoint"/>
                        <mxPoint x="110" y="240" as="targetPoint"/>
                        <Array as="points">
                            <mxPoint x="80" y="190"/>
                            <mxPoint x="80" y="345"/>
                        </Array>
                    </mxGeometry>
                </mxCell>
                <mxCell id="24" value="栈帧" style="text;html=1;strokeColor=none;fillColor=none;align=center;verticalAlign=middle;whiteSpace=wrap;rounded=0;fontColor=#6666FF;fontStyle=1" vertex="1" parent="1">
                    <mxGeometry x="190" y="30" width="60" height="30" as="geometry"/>
                </mxCell>
            </root>
        </mxGraphModel>
    </diagram>
</mxfile>